<svg xmlns="http://www.w3.org/2000/svg" viewBox="0 0 512 512" width="512" height="512">
	<style>
		tspan { white-space:pre }
		.shp0 { fill: #e23636 } 
	</style>
	<g id="Layer">
		<g id="Layer">
			<path id="Layer" fill-rule="evenodd" class="shp0" d="M508.88 508.88C506.79 510.96 504.06 512 501.33 512C498.6 512 495.88 510.96 493.79 508.88L338.01 353.09C302.08 385.45 254.71 405.33 202.67 405.33C90.92 405.33 0 314.42 0 202.67C0 90.92 90.92 0 202.67 0C314.42 0 405.33 90.92 405.33 202.67C405.33 254.71 385.45 302.08 353.09 338L508.88 493.79C513.04 497.96 513.04 504.71 508.88 508.88ZM384 202.67C384 102.68 302.65 21.33 202.67 21.33C102.69 21.33 21.33 102.68 21.33 202.67C21.33 302.66 102.69 384 202.67 384C302.65 384 384 302.66 384 202.67Z" />
		</g>
	</g>
	<g id="Layer">
	</g>
	<g id="Layer">
	</g>
	<g id="Layer">
	</g>
	<g id="Layer">
	</g>
	<g id="Layer">
	</g>
	<g id="Layer">
	</g>
	<g id="Layer">
	</g>
	<g id="Layer">
	</g>
	<g id="Layer">
	</g>
	<g id="Layer">
	</g>
	<g id="Layer">
	</g>
	<g id="Layer">
	</g>
	<g id="Layer">
	</g>
	<g id="Layer">
	</g>
</svg>